<svg width="32" height="32" viewBox="0 0 32 32" fill="none" xmlns="http://www.w3.org/2000/svg">
  <rect width="32" height="32" rx="6" fill="#3B82F6"/>
  <path d="M8 12C8 10.8954 8.89543 10 10 10H14C17.3137 10 20 12.6863 20 16C20 19.3137 17.3137 22 14 22H10C8.89543 22 8 21.1046 8 20V12Z" fill="white"/>
  <path d="M20 12C20 10.8954 20.8954 10 22 10C23.1046 10 24 10.8954 24 12V20C24 21.1046 23.1046 22 22 22C20.8954 22 20 21.1046 20 20V12Z" fill="white"/>
  <circle cx="14" cy="16" r="2" fill="#3B82F6"/>
</svg>