<?xml version="1.0" encoding="UTF-8"?>
<svg id="_레이어_2" data-name="레이어 2" xmlns="http://www.w3.org/2000/svg" xmlns:xlink="http://www.w3.org/1999/xlink" viewBox="0 0 889.32 201.45">
  <defs>
    <style>
      .cls-1, .cls-2, .cls-3, .cls-4 {
        stroke-width: 0px;
      }

      .cls-2 {
        fill: url(#_무제_그라디언트_1389);
      }

      .cls-3 {
        fill: #3e88ff;
      }

      .cls-4 {
        fill: #a8a8a8;
      }
    </style>
    <linearGradient id="_무제_그라디언트_1389" data-name="무제 그라디언트 1389" x1="654.38" y1="168.99" x2="574.88" y2="31.3" gradientUnits="userSpaceOnUse">
      <stop offset="0" stop-color="#00002f"/>
      <stop offset=".5" stop-color="#ff6b47"/>
      <stop offset=".75" stop-color="#21ff95"/>
      <stop offset="1" stop-color="#00e7ff"/>
    </linearGradient>
  </defs>
  <g id="_레이어_1-2" data-name="레이어 1">
    <g>
      <g>
        <path class="cls-3" d="m150.43,102.17c-24.28,0-43.96,18.87-43.96,42.14,0,17.57,11.22,32.62,27.17,38.95,2.76,1.09,4.28,4.05,3.45,6.89l-1.78,6.13c-.84,2.9,1.67,5.67,4.63,5.09,8.45-1.66,23.7-6.08,36.09-17.48,14.43-13.27,18.37-27.36,18.37-39.58,0-23.28-19.68-42.14-43.96-42.14Z"/>
        <path class="cls-1" d="m150.59,20.55c-27.58,0-49.93,22.35-49.93,49.93,0,13.52,5.39,25.78,14.12,34.77,7.29-6.27,16.39-10.64,26.44-12.34-7.82-3.81-13.27-12.22-13.27-22.01,0-13.37,10.13-24.2,22.63-24.2s22.63,10.84,22.63,24.2c0,9.79-5.45,18.2-13.27,22.01,10.06,1.7,19.15,6.07,26.44,12.34,8.73-8.99,14.12-21.25,14.12-34.77,0-27.58-22.35-49.93-49.93-49.93Z"/>
        <path class="cls-1" d="m51.38,148.57c-9.93,0-18.79-2.03-26.55-6.08-7.77-4.05-13.85-9.68-18.24-16.87-4.4-7.19-6.59-15.36-6.59-24.49s2.2-17.44,6.59-24.58c4.39-7.14,10.47-12.73,18.24-16.79,7.76-4.05,16.62-6.08,26.55-6.08s18.16,2.03,25.35,6.08c7.19,4.06,12.5,9.85,15.93,17.39l-20.72,11.13c-2.4-4.34-5.4-7.54-8.99-9.59-3.6-2.06-7.51-3.08-11.73-3.08-4.57,0-8.68,1.03-12.33,3.08-3.66,2.05-6.54,4.97-8.65,8.73-2.11,3.77-3.17,8.34-3.17,13.7s1.05,9.93,3.17,13.7c2.11,3.77,4.99,6.68,8.65,8.74,3.65,2.05,7.76,3.08,12.33,3.08,4.22,0,8.14-1,11.73-3,3.6-2,6.59-5.22,8.99-9.68l20.72,11.3c-3.43,7.42-8.73,13.16-15.93,17.21-7.19,4.06-15.65,6.08-25.35,6.08Z"/>
        <path class="cls-1" d="m252.28,148.57c-8.68,0-16.5-1.97-23.47-5.91-6.97-3.94-12.48-9.45-16.53-16.53-4.05-7.08-6.08-15.42-6.08-25.01s2.03-18.1,6.08-25.18c4.05-7.08,9.56-12.56,16.53-16.44,6.96-3.88,14.79-5.82,23.47-5.82,7.76,0,14.56,1.71,20.38,5.14,5.82,3.43,10.33,8.62,13.53,15.59,3.2,6.97,4.8,15.87,4.8,26.72s-1.54,19.61-4.63,26.63c-3.08,7.02-7.51,12.25-13.27,15.67-5.77,3.43-12.7,5.14-20.81,5.14Zm4.63-21.92c4.34,0,8.28-1.03,11.82-3.08,3.54-2.06,6.36-5,8.48-8.82,2.11-3.82,3.17-8.36,3.17-13.62s-1.06-9.94-3.17-13.7c-2.11-3.77-4.94-6.68-8.48-8.73-3.54-2.06-7.48-3.08-11.82-3.08s-8.45,1.03-11.99,3.08c-3.54,2.05-6.37,4.97-8.48,8.73-2.11,3.77-3.17,8.34-3.17,13.7s1.05,9.79,3.17,13.62c2.11,3.83,4.94,6.77,8.48,8.82,3.54,2.05,7.54,3.08,11.99,3.08Zm24.15,20.55v-18.84l.51-27.41-1.71-27.23V20.1h26.72v127.09h-25.52Z"/>
        <path class="cls-1" d="m325.02,147.2V20.1h26.72v127.09h-26.72Z"/>
        <path class="cls-1" d="m417.11,148.57c-10.51,0-19.73-2.06-27.66-6.17-7.94-4.11-14.07-9.73-18.41-16.87-4.34-7.14-6.51-15.27-6.51-24.41s2.14-17.44,6.42-24.58c4.28-7.14,10.13-12.73,17.56-16.79,7.42-4.05,15.81-6.08,25.18-6.08s17.16,1.91,24.41,5.74c7.25,3.83,12.99,9.31,17.21,16.44,4.22,7.14,6.34,15.67,6.34,25.61,0,1.03-.06,2.2-.17,3.51-.12,1.31-.23,2.54-.34,3.68h-74.85v-15.59h60.81l-10.28,4.63c0-4.8-.97-8.96-2.91-12.5-1.94-3.54-4.63-6.31-8.05-8.31-3.43-2-7.43-3-11.99-3s-8.59,1-12.08,3c-3.48,2-6.2,4.8-8.14,8.39-1.94,3.6-2.91,7.85-2.91,12.76v4.11c0,5.03,1.11,9.45,3.34,13.27,2.23,3.83,5.37,6.74,9.42,8.73,4.05,2,8.82,3,14.3,3,4.91,0,9.22-.74,12.93-2.23,3.71-1.48,7.11-3.71,10.19-6.68l14.22,15.42c-4.23,4.8-9.54,8.48-15.93,11.05-6.4,2.57-13.76,3.85-22.1,3.85Z"/>
      </g>
      <rect class="cls-4" x="518.16" y="51.4" width="3.41" height="101.61"/>
    </g>
    <polygon class="cls-2" points="633.75 180.9 584.33 180.9 584.33 25.84 633.75 0 633.75 180.9"/>
    <polygon class="cls-1" points="633.75 180.9 683.16 180.9 683.16 25.84 633.75 0 633.75 180.9"/>
    <g>
      <path class="cls-1" d="m712.18,55.99v-20.11h-7.87v-2.85h18.99v2.85h-7.87v20.11h-3.25Z"/>
      <path class="cls-1" d="m730.15,53.14h13.38v2.85h-16.66v-22.96h16.2v2.85h-12.92v17.25Zm-.3-10.2h11.81v2.79h-11.81v-2.79Z"/>
      <path class="cls-1" d="m745.37,55.99l10.4-22.96h3.25l10.43,22.96h-3.44l-9.28-21.12h1.31l-9.28,21.12h-3.38Zm4.43-5.74l.89-2.62h12.92l.95,2.62h-14.76Z"/>
      <path class="cls-1" d="m772.85,55.99v-22.96h2.69l10.3,17.35h-1.44l10.17-17.35h2.69l.03,22.96h-3.15l-.03-18.01h.75l-9.05,15.22h-1.51l-9.12-15.22h.82v18.01h-3.15Z"/>
      <path class="cls-1" d="m707.62,95.35v-22.96h2.69l10.3,17.35h-1.44l10.17-17.35h2.69l.03,22.96h-3.15l-.03-18.01h.75l-9.05,15.22h-1.51l-9.12-15.22h.82v18.01h-3.15Z"/>
      <path class="cls-1" d="m749.3,95.61c-1.75,0-3.37-.3-4.87-.89-1.5-.59-2.79-1.42-3.89-2.48-1.09-1.06-1.95-2.3-2.56-3.72-.61-1.42-.92-2.97-.92-4.66s.31-3.24.92-4.66c.61-1.42,1.46-2.66,2.56-3.72,1.09-1.06,2.38-1.89,3.87-2.48,1.49-.59,3.12-.89,4.89-.89s3.36.29,4.84.87c1.48.58,2.77,1.4,3.87,2.46,1.1,1.06,1.96,2.3,2.56,3.72.6,1.42.9,2.98.9,4.69s-.3,3.27-.9,4.69c-.6,1.42-1.45,2.66-2.56,3.72-1.1,1.06-2.39,1.88-3.87,2.46-1.48.58-3.09.87-4.84.87Zm0-2.92c1.27,0,2.44-.22,3.53-.66,1.08-.44,2.02-1.05,2.82-1.85s1.42-1.73,1.87-2.8c.45-1.07.67-2.24.67-3.51s-.22-2.44-.67-3.51c-.45-1.07-1.07-2.01-1.87-2.8-.8-.8-1.74-1.42-2.82-1.85-1.08-.44-2.26-.66-3.53-.66s-2.48.22-3.56.66c-1.08.44-2.03,1.06-2.84,1.85-.81.8-1.44,1.73-1.89,2.8-.45,1.07-.67,2.24-.67,3.51s.22,2.44.67,3.51c.45,1.07,1.08,2.01,1.89,2.8.81.8,1.75,1.42,2.84,1.85,1.08.44,2.27.66,3.56.66Z"/>
      <path class="cls-1" d="m766.49,95.35v-22.96h2.69l15.19,18.86h-1.41v-18.86h3.28v22.96h-2.69l-15.19-18.86h1.41v18.86h-3.28Z"/>
      <path class="cls-1" d="m803.49,95.61c-1.75,0-3.37-.3-4.87-.89-1.5-.59-2.79-1.42-3.89-2.48-1.09-1.06-1.95-2.3-2.56-3.72-.61-1.42-.92-2.97-.92-4.66s.31-3.24.92-4.66c.61-1.42,1.46-2.66,2.56-3.72,1.09-1.06,2.38-1.89,3.87-2.48,1.49-.59,3.12-.89,4.89-.89s3.36.29,4.84.87c1.48.58,2.77,1.4,3.87,2.46,1.1,1.06,1.96,2.3,2.56,3.72.6,1.42.9,2.98.9,4.69s-.3,3.27-.9,4.69c-.6,1.42-1.45,2.66-2.56,3.72-1.1,1.06-2.39,1.88-3.87,2.46-1.48.58-3.09.87-4.84.87Zm0-2.92c1.27,0,2.44-.22,3.53-.66,1.08-.44,2.02-1.05,2.82-1.85s1.42-1.73,1.87-2.8c.45-1.07.67-2.24.67-3.51s-.22-2.44-.67-3.51c-.45-1.07-1.07-2.01-1.87-2.8-.8-.8-1.74-1.42-2.82-1.85-1.08-.44-2.26-.66-3.53-.66s-2.48.22-3.56.66c-1.08.44-2.03,1.06-2.84,1.85-.81.8-1.44,1.73-1.89,2.8-.45,1.07-.67,2.24-.67,3.51s.22,2.44.67,3.51c.45,1.07,1.08,2.01,1.89,2.8.81.8,1.75,1.42,2.84,1.85,1.08.44,2.27.66,3.56.66Z"/>
      <path class="cls-1" d="m820.67,95.35v-22.96h3.28v20.11h12.43v2.85h-15.71Z"/>
      <path class="cls-1" d="m840.15,95.35v-22.96h3.28v22.96h-3.28Z"/>
      <path class="cls-1" d="m854.88,95.35v-20.11h-7.87v-2.85h18.99v2.85h-7.87v20.11h-3.25Z"/>
      <path class="cls-1" d="m872.85,95.35h-3.28v-22.96h3.28v22.96Zm13.48-10.23h-13.81v-2.85h13.81v2.85Zm-.3-12.73h3.28v22.96h-3.28v-22.96Z"/>
    </g>
  </g>
</svg>